name Walk7.mot
datacolumns 19
datarows 15
range 2.08100000 2.09500000
endheader

                time	   L_ground_force_vx	   L_ground_force_vy	   L_ground_force_vz	   L_ground_force_px	   L_ground_force_py	   L_ground_force_pz	   R_ground_force_vx	   R_ground_force_vy	   R_ground_force_vz	   R_ground_force_px	   R_ground_force_py	   R_ground_force_pz	   L_ground_torque_x	   L_ground_torque_y	   L_ground_torque_z	   R_ground_torque_x	   R_ground_torque_y	   R_ground_torque_z	
          2.08100000	          0.00000000	          0.00000000	          0.00000000	          0.00000000	          0.00000000	          0.00000000	        -32.71747849	        835.51824511	        -51.67048426	          0.53030078	          0.00000000	          0.12756294	          0.00000000	          0.00000000	          0.00000000	          0.00000000	          2.09675863	          0.00000000	
          2.08200000	          0.00000000	          0.00000000	          0.00000000	          0.00000000	          0.00000000	          0.00000000	        -32.25732227	        833.11220771	        -51.33596530	          0.53057604	          0.00000000	          0.12756203	          0.00000000	          0.00000000	          0.00000000	          0.00000000	          2.03542604	          0.00000000	
          2.08300000	          0.00000000	          0.00000000	          0.00000000	          0.00000000	          0.00000000	          0.00000000	        -31.80704233	        830.87249754	        -51.04982218	          0.53083517	          0.00000000	          0.12760713	          0.00000000	          0.00000000	          0.00000000	          0.00000000	          1.96991990	          0.00000000	
          2.08400000	          0.00000000	          0.00000000	          0.00000000	          0.00000000	          0.00000000	          0.00000000	        -31.37171349	        828.74629356	        -50.81501384	          0.53108514	          0.00000000	          0.12771381	          0.00000000	          0.00000000	          0.00000000	          0.00000000	          1.90290442	          0.00000000	
          2.08500000	          0.00000000	          0.00000000	          0.00000000	          0.00000000	          0.00000000	          0.00000000	        -30.95042218	        826.68204662	        -50.61620506	          0.53133287	          0.00000000	          0.12787025	          0.00000000	          0.00000000	          0.00000000	          0.00000000	          1.83832670	          0.00000000	
          2.08600000	          0.00000000	          0.00000000	          0.00000000	          0.00000000	          0.00000000	          0.00000000	        -30.53451097	        824.61684963	        -50.42779500	          0.53158821	          0.00000000	          0.12804688	          0.00000000	          0.00000000	          0.00000000	          0.00000000	          1.77753404	          0.00000000	
          2.08700000	          0.00000000	          0.00000000	          0.00000000	          0.00000000	          0.00000000	          0.00000000	        -30.12002711	        822.49658806	        -50.22884205	          0.53186706	          0.00000000	          0.12821144	          0.00000000	          0.00000000	          0.00000000	          0.00000000	          1.71953498	          0.00000000	
          2.08800000	          0.00000000	          0.00000000	          0.00000000	          0.00000000	          0.00000000	          0.00000000	        -29.71286558	        820.31639795	        -50.01437276	          0.53216585	          0.00000000	          0.12834198	          0.00000000	          0.00000000	          0.00000000	          0.00000000	          1.66403876	          0.00000000	
          2.08900000	          0.00000000	          0.00000000	          0.00000000	          0.00000000	          0.00000000	          0.00000000	        -29.31725250	        818.10809939	        -49.79068819	          0.53245011	          0.00000000	          0.12843149	          0.00000000	          0.00000000	          0.00000000	          0.00000000	          1.61114458	          0.00000000	
          2.09000000	          0.00000000	          0.00000000	          0.00000000	          0.00000000	          0.00000000	          0.00000000	        -28.92856876	        815.91143265	        -49.56052952	          0.53269480	          0.00000000	          0.12848858	          0.00000000	          0.00000000	          0.00000000	          0.00000000	          1.56025722	          0.00000000	
          2.09100000	          0.00000000	          0.00000000	          0.00000000	          0.00000000	          0.00000000	          0.00000000	        -28.53725729	        813.76959997	        -49.31978075	          0.53291315	          0.00000000	          0.12853275	          0.00000000	          0.00000000	          0.00000000	          0.00000000	          1.51097164	          0.00000000	
          2.09200000	          0.00000000	          0.00000000	          0.00000000	          0.00000000	          0.00000000	          0.00000000	        -28.13651414	        811.71722380	        -49.06962944	          0.53313132	          0.00000000	          0.12858185	          0.00000000	          0.00000000	          0.00000000	          0.00000000	          1.46298360	          0.00000000	
          2.09300000	          0.00000000	          0.00000000	          0.00000000	          0.00000000	          0.00000000	          0.00000000	        -27.72882896	        809.76636083	        -48.82007222	          0.53335689	          0.00000000	          0.12864107	          0.00000000	          0.00000000	          0.00000000	          0.00000000	          1.41502093	          0.00000000	
          2.09400000	          0.00000000	          0.00000000	          0.00000000	          0.00000000	          0.00000000	          0.00000000	        -27.32285724	        807.92230068	        -48.57601986	          0.53357502	          0.00000000	          0.12870472	          0.00000000	          0.00000000	          0.00000000	          0.00000000	          1.36522173	          0.00000000	
          2.09500000	          0.00000000	          0.00000000	          0.00000000	          0.00000000	          0.00000000	          0.00000000	        -26.92411743	        806.20035883	        -48.33105876	          0.53376250	          0.00000000	          0.12876812	          0.00000000	          0.00000000	          0.00000000	          0.00000000	          1.31324105	          0.00000000	
